<?xml version="1.0" encoding="UTF-8" standalone="no"?>
<!DOCTYPE svg PUBLIC "-//W3C//DTD SVG 1.1//EN"
 "http://www.w3.org/Graphics/SVG/1.1/DTD/svg11.dtd">
<!-- Generated by graphviz version 3.0.0 (20220315.2325)
 -->
<!-- Title: Immunopipe Pages: 1 -->
<svg width="331pt" height="514pt"
 viewBox="0.00 0.00 330.50 514.00" xmlns="http://www.w3.org/2000/svg" xmlns:xlink="http://www.w3.org/1999/xlink">
<g id="graph0" class="graph" transform="scale(1 1) rotate(0) translate(4 510)">
<title>Immunopipe</title>
<polygon fill="white" stroke="transparent" points="-4,4 -4,-510 326.5,-510 326.5,4 -4,4"/>
<text text-anchor="middle" x="161.25" y="-490.8" font-family="Helvetica,sans-Serif" font-size="14.00">Immunopipe</text>
<text text-anchor="middle" x="161.25" y="-475.8" font-family="Helvetica,sans-Serif" font-size="14.00"> </text>
<!-- ImmunarchLoading -->
<g id="node1" class="node">
<title>ImmunarchLoading</title>
<g id="a_node1"><a xlink:title="Immuarch &#45; Loading data">
<path fill="none" stroke="black" d="M150.5,-396C150.5,-396 55.5,-396 55.5,-396 49.5,-396 43.5,-390 43.5,-384 43.5,-384 43.5,-372 43.5,-372 43.5,-366 49.5,-360 55.5,-360 55.5,-360 150.5,-360 150.5,-360 156.5,-360 162.5,-366 162.5,-372 162.5,-372 162.5,-384 162.5,-384 162.5,-390 156.5,-396 150.5,-396"/>
<text text-anchor="middle" x="103" y="-374.9" font-family="Helvetica,sans-Serif" font-size="12.00">ImmunarchLoading</text>
</a>
</g>
</g>
<!-- TCellSelection -->
<g id="node5" class="node">
<title>TCellSelection</title>
<path fill="none" stroke="black" d="M240,-252C240,-252 168,-252 168,-252 162,-252 156,-246 156,-240 156,-240 156,-228 156,-228 156,-222 162,-216 168,-216 168,-216 240,-216 240,-216 246,-216 252,-222 252,-228 252,-228 252,-240 252,-240 252,-246 246,-252 240,-252"/>
<text text-anchor="middle" x="204" y="-230.9" font-family="Helvetica,sans-Serif" font-size="12.00">TCellSelection</text>
</g>
<!-- ImmunarchLoading&#45;&gt;TCellSelection -->
<g id="edge3" class="edge">
<title>ImmunarchLoading&#45;&gt;TCellSelection</title>
<path fill="none" stroke="black" d="M110.75,-359.77C119.48,-341.21 134.73,-311.21 152,-288 159.95,-277.31 169.96,-266.61 179.07,-257.66"/>
<polygon fill="black" stroke="black" points="181.08,-259.61 184.89,-252.04 177.19,-255.58 181.08,-259.61"/>
</g>
<!-- Immunarch -->
<g id="node7" class="node">
<title>Immunarch</title>
<g id="a_node7"><a xlink:title="Exploration of Single&#45;cell and Bulk T&#45;cell/Antibody Immune Repertoires">
<polygon fill="none" stroke="black" points="76,-36 0,-36 0,0 76,0 76,-36"/>
<text text-anchor="middle" x="38" y="-14.9" font-family="Helvetica,sans-Serif" font-size="12.00">Immunarch</text>
</a>
</g>
</g>
<!-- ImmunarchLoading&#45;&gt;Immunarch -->
<g id="edge8" class="edge">
<title>ImmunarchLoading&#45;&gt;Immunarch</title>
<path fill="none" stroke="black" d="M89.22,-359.79C70.14,-334.18 38,-283.8 38,-235 38,-235 38,-235 38,-161 38,-120.11 38,-72.61 38,-44.22"/>
<polygon fill="black" stroke="black" points="40.8,-44.05 38,-36.05 35.2,-44.05 40.8,-44.05"/>
</g>
<!-- IntegratingTCR -->
<g id="node8" class="node">
<title>IntegratingTCR</title>
<g id="a_node8"><a xlink:title="Attach TCR clone information as meta columns to Seurat object">
<path fill="none" stroke="black" d="M152,-108C152,-108 78,-108 78,-108 72,-108 66,-102 66,-96 66,-96 66,-84 66,-84 66,-78 72,-72 78,-72 78,-72 152,-72 152,-72 158,-72 164,-78 164,-84 164,-84 164,-96 164,-96 164,-102 158,-108 152,-108"/>
<text text-anchor="middle" x="115" y="-86.9" font-family="Helvetica,sans-Serif" font-size="12.00">IntegratingTCR</text>
</a>
</g>
</g>
<!-- ImmunarchLoading&#45;&gt;IntegratingTCR -->
<g id="edge10" class="edge">
<title>ImmunarchLoading&#45;&gt;IntegratingTCR</title>
<path fill="none" stroke="black" d="M103.71,-359.97C105.74,-311.7 111.53,-173.8 113.93,-116.47"/>
<polygon fill="black" stroke="black" points="116.74,-116.42 114.27,-108.31 111.14,-116.18 116.74,-116.42"/>
</g>
<!-- SeuratClusteringOfAllCells -->
<g id="node2" class="node">
<title>SeuratClusteringOfAllCells</title>
<g id="a_node2"><a xlink:title="Cluster all cells, including T cells and non&#45;T cells using Seurat">
<path fill="none" stroke="black" d="M310.5,-324C310.5,-324 173.5,-324 173.5,-324 167.5,-324 161.5,-318 161.5,-312 161.5,-312 161.5,-300 161.5,-300 161.5,-294 167.5,-288 173.5,-288 173.5,-288 310.5,-288 310.5,-288 316.5,-288 322.5,-294 322.5,-300 322.5,-300 322.5,-312 322.5,-312 322.5,-318 316.5,-324 310.5,-324"/>
<text text-anchor="middle" x="242" y="-302.9" font-family="Helvetica,sans-Serif" font-size="12.00">SeuratClusteringOfAllCells</text>
</a>
</g>
</g>
<!-- SeuratClusteringOfAllCells&#45;&gt;TCellSelection -->
<g id="edge6" class="edge">
<title>SeuratClusteringOfAllCells&#45;&gt;TCellSelection</title>
<path fill="none" stroke="black" d="M232.61,-287.7C227.96,-279.14 222.27,-268.66 217.19,-259.3"/>
<polygon fill="black" stroke="black" points="219.56,-257.8 213.29,-252.1 214.64,-260.47 219.56,-257.8"/>
</g>
<!-- SeuratClustering -->
<g id="node3" class="node">
<title>SeuratClustering</title>
<g id="a_node3"><a xlink:title="Cluster all T cells or selected T cells selected by `TCellSelection`.">
<path fill="none" stroke="black" d="M245.5,-180C245.5,-180 162.5,-180 162.5,-180 156.5,-180 150.5,-174 150.5,-168 150.5,-168 150.5,-156 150.5,-156 150.5,-150 156.5,-144 162.5,-144 162.5,-144 245.5,-144 245.5,-144 251.5,-144 257.5,-150 257.5,-156 257.5,-156 257.5,-168 257.5,-168 257.5,-174 251.5,-180 245.5,-180"/>
<text text-anchor="middle" x="204" y="-158.9" font-family="Helvetica,sans-Serif" font-size="12.00">SeuratClustering</text>
</a>
</g>
</g>
<!-- ClusterMarkers -->
<g id="node4" class="node">
<title>ClusterMarkers</title>
<g id="a_node4"><a xlink:title="Markers for clusters of all or selected T cells.">
<polygon fill="none" stroke="black" points="280,-108 182,-108 182,-72 280,-72 280,-108"/>
<text text-anchor="middle" x="231" y="-86.9" font-family="Helvetica,sans-Serif" font-size="12.00">ClusterMarkers</text>
</a>
</g>
</g>
<!-- SeuratClustering&#45;&gt;ClusterMarkers -->
<g id="edge12" class="edge">
<title>SeuratClustering&#45;&gt;ClusterMarkers</title>
<path fill="none" stroke="black" d="M210.67,-143.7C213.94,-135.22 217.94,-124.86 221.52,-115.58"/>
<polygon fill="black" stroke="black" points="224.14,-116.58 224.4,-108.1 218.91,-114.56 224.14,-116.58"/>
</g>
<!-- SeuratClustering&#45;&gt;IntegratingTCR -->
<g id="edge4" class="edge">
<title>SeuratClustering&#45;&gt;IntegratingTCR</title>
<path fill="none" stroke="black" d="M182,-143.7C170.25,-134.46 155.67,-122.98 143.1,-113.11"/>
<polygon fill="black" stroke="black" points="144.77,-110.85 136.75,-108.1 141.3,-115.25 144.77,-110.85"/>
</g>
<!-- TCellSelection&#45;&gt;SeuratClustering -->
<g id="edge7" class="edge">
<title>TCellSelection&#45;&gt;SeuratClustering</title>
<path fill="none" stroke="black" d="M204,-215.7C204,-207.39 204,-197.28 204,-188.14"/>
<polygon fill="black" stroke="black" points="206.8,-188.1 204,-180.1 201.2,-188.1 206.8,-188.1"/>
</g>
<!-- SeuratPreparing -->
<g id="node6" class="node">
<title>SeuratPreparing</title>
<g id="a_node6"><a xlink:title="Load, prepare and apply QC to data, using `Seurat`">
<path fill="none" stroke="black" d="M277,-396C277,-396 197,-396 197,-396 191,-396 185,-390 185,-384 185,-384 185,-372 185,-372 185,-366 191,-360 197,-360 197,-360 277,-360 277,-360 283,-360 289,-366 289,-372 289,-372 289,-384 289,-384 289,-390 283,-396 277,-396"/>
<text text-anchor="middle" x="237" y="-374.9" font-family="Helvetica,sans-Serif" font-size="12.00">SeuratPreparing</text>
</a>
</g>
</g>
<!-- SeuratPreparing&#45;&gt;SeuratClusteringOfAllCells -->
<g id="edge2" class="edge">
<title>SeuratPreparing&#45;&gt;SeuratClusteringOfAllCells</title>
<path fill="none" stroke="black" d="M238.24,-359.7C238.83,-351.39 239.55,-341.28 240.2,-332.14"/>
<polygon fill="black" stroke="black" points="243,-332.28 240.78,-324.1 237.42,-331.88 243,-332.28"/>
</g>
<!-- IntegratingTCR&#45;&gt;Immunarch -->
<g id="edge9" class="edge">
<title>IntegratingTCR&#45;&gt;Immunarch</title>
<path fill="none" stroke="black" d="M95.97,-71.7C85.99,-62.63 73.64,-51.4 62.92,-41.65"/>
<polygon fill="black" stroke="black" points="64.62,-39.41 56.81,-36.1 60.85,-43.56 64.62,-39.41"/>
</g>
<!-- SeuratClusterStats -->
<g id="node9" class="node">
<title>SeuratClusterStats</title>
<polygon fill="none" stroke="black" points="211.5,-36 94.5,-36 94.5,0 211.5,0 211.5,-36"/>
<text text-anchor="middle" x="153" y="-14.9" font-family="Helvetica,sans-Serif" font-size="12.00">SeuratClusterStats</text>
</g>
<!-- IntegratingTCR&#45;&gt;SeuratClusterStats -->
<g id="edge1" class="edge">
<title>IntegratingTCR&#45;&gt;SeuratClusterStats</title>
<path fill="none" stroke="black" d="M124.39,-71.7C129.04,-63.14 134.73,-52.66 139.81,-43.3"/>
<polygon fill="black" stroke="black" points="142.36,-44.47 143.71,-36.1 137.44,-41.8 142.36,-44.47"/>
</g>
<!-- SampleInfo -->
<g id="node10" class="node">
<title>SampleInfo</title>
<g id="a_node10"><a xlink:title="List sample information and perform statistics">
<polygon fill="none" stroke="black" points="168,-468 100.93,-450 168,-432 235.07,-450 168,-468"/>
<text text-anchor="middle" x="168" y="-446.9" font-family="Helvetica,sans-Serif" font-size="12.00">SampleInfo</text>
</a>
</g>
</g>
<!-- SampleInfo&#45;&gt;ImmunarchLoading -->
<g id="edge5" class="edge">
<title>SampleInfo&#45;&gt;ImmunarchLoading</title>
<path fill="none" stroke="black" d="M155.16,-435.17C146.35,-425.69 134.47,-412.89 124.27,-401.9"/>
<polygon fill="black" stroke="black" points="126.3,-399.98 118.8,-396.02 122.2,-403.79 126.3,-399.98"/>
</g>
<!-- SampleInfo&#45;&gt;SeuratPreparing -->
<g id="edge11" class="edge">
<title>SampleInfo&#45;&gt;SeuratPreparing</title>
<path fill="none" stroke="black" d="M181.3,-435.5C190.62,-426.05 203.31,-413.18 214.22,-402.11"/>
<polygon fill="black" stroke="black" points="216.44,-403.84 220.07,-396.18 212.46,-399.91 216.44,-403.84"/>
</g>
</g>
</svg>
