<?xml version="1.0" encoding="UTF-8" standalone="no"?>
<!DOCTYPE svg PUBLIC "-//W3C//DTD SVG 1.1//EN"
 "http://www.w3.org/Graphics/SVG/1.1/DTD/svg11.dtd">
<!-- Generated by graphviz version 12.0.0 (20240803.0821)
 -->
<!-- Title: Immunopipe Pages: 1 -->
<svg width="330pt" height="519pt"
 viewBox="0.00 0.00 330.12 518.50" xmlns="http://www.w3.org/2000/svg" xmlns:xlink="http://www.w3.org/1999/xlink">
<g id="graph0" class="graph" transform="scale(1 1) rotate(0) translate(4 514.5)">
<title>Immunopipe</title>
<polygon fill="white" stroke="none" points="-4,4 -4,-514.5 326.12,-514.5 326.12,4 -4,4"/>
<text text-anchor="middle" x="161.06" y="-493.2" font-family="Helvetica,sans-Serif" font-size="14.00">Immunopipe</text>
<text text-anchor="middle" x="161.06" y="-475.95" font-family="Helvetica,sans-Serif" font-size="14.00"> </text>
<!-- SeuratClusterStats -->
<g id="node1" class="node">
<title>SeuratClusterStats</title>
<polygon fill="none" stroke="black" points="235,-36 107.25,-36 107.25,0 235,0 235,-36"/>
<text text-anchor="middle" x="171.12" y="-13.72" font-family="Helvetica,sans-Serif" font-size="12.00">SeuratClusterStats</text>
</g>
<!-- ImmunarchLoading -->
<g id="node2" class="node">
<title>ImmunarchLoading</title>
<g id="a_node2"><a xlink:title="Immuarch &#45; Loading data">
<path fill="none" stroke="black" d="M120.25,-324C120.25,-324 12,-324 12,-324 6,-324 0,-318 0,-312 0,-312 0,-300 0,-300 0,-294 6,-288 12,-288 12,-288 120.25,-288 120.25,-288 126.25,-288 132.25,-294 132.25,-300 132.25,-300 132.25,-312 132.25,-312 132.25,-318 126.25,-324 120.25,-324"/>
<text text-anchor="middle" x="66.12" y="-301.73" font-family="Helvetica,sans-Serif" font-size="12.00">ImmunarchLoading</text>
</a>
</g>
</g>
<!-- Immunarch -->
<g id="node6" class="node">
<title>Immunarch</title>
<g id="a_node6"><a xlink:title="Exploration of Single&#45;cell and Bulk T&#45;cell/Antibody Immune Repertoires">
<polygon fill="none" stroke="black" points="89.62,-36 4.62,-36 4.62,0 89.62,0 89.62,-36"/>
<text text-anchor="middle" x="47.12" y="-13.72" font-family="Helvetica,sans-Serif" font-size="12.00">Immunarch</text>
</a>
</g>
</g>
<!-- ImmunarchLoading&#45;&gt;Immunarch -->
<g id="edge8" class="edge">
<title>ImmunarchLoading&#45;&gt;Immunarch</title>
<path fill="none" stroke="black" d="M64.97,-287.54C61.75,-239.16 52.72,-103.15 48.88,-45.43"/>
<polygon fill="black" stroke="black" points="51.69,-45.54 48.37,-37.74 46.11,-45.91 51.69,-45.54"/>
</g>
<!-- TCellSelection -->
<g id="node9" class="node">
<title>TCellSelection</title>
<path fill="none" stroke="black" d="M251.75,-252C251.75,-252 176.5,-252 176.5,-252 170.5,-252 164.5,-246 164.5,-240 164.5,-240 164.5,-228 164.5,-228 164.5,-222 170.5,-216 176.5,-216 176.5,-216 251.75,-216 251.75,-216 257.75,-216 263.75,-222 263.75,-228 263.75,-228 263.75,-240 263.75,-240 263.75,-246 257.75,-252 251.75,-252"/>
<text text-anchor="middle" x="214.12" y="-229.72" font-family="Helvetica,sans-Serif" font-size="12.00">TCellSelection</text>
</g>
<!-- ImmunarchLoading&#45;&gt;TCellSelection -->
<g id="edge2" class="edge">
<title>ImmunarchLoading&#45;&gt;TCellSelection</title>
<path fill="none" stroke="black" d="M103.09,-287.52C123.03,-278.08 147.81,-266.37 168.89,-256.39"/>
<polygon fill="black" stroke="black" points="169.97,-258.98 176.01,-253.03 167.58,-253.92 169.97,-258.98"/>
</g>
<!-- IntegratingTCR -->
<g id="node10" class="node">
<title>IntegratingTCR</title>
<g id="a_node10"><a xlink:title="Attach TCR clone information as meta columns to Seurat object">
<path fill="none" stroke="black" d="M168.75,-108C168.75,-108 87.5,-108 87.5,-108 81.5,-108 75.5,-102 75.5,-96 75.5,-96 75.5,-84 75.5,-84 75.5,-78 81.5,-72 87.5,-72 87.5,-72 168.75,-72 168.75,-72 174.75,-72 180.75,-78 180.75,-84 180.75,-84 180.75,-96 180.75,-96 180.75,-102 174.75,-108 168.75,-108"/>
<text text-anchor="middle" x="128.12" y="-85.72" font-family="Helvetica,sans-Serif" font-size="12.00">IntegratingTCR</text>
</a>
</g>
</g>
<!-- ImmunarchLoading&#45;&gt;IntegratingTCR -->
<g id="edge1" class="edge">
<title>ImmunarchLoading&#45;&gt;IntegratingTCR</title>
<path fill="none" stroke="black" d="M71.09,-287.85C81.91,-250.52 107.64,-161.69 120.52,-117.26"/>
<polygon fill="black" stroke="black" points="123.17,-118.15 122.71,-109.69 117.8,-116.59 123.17,-118.15"/>
</g>
<!-- SeuratClustering -->
<g id="node3" class="node">
<title>SeuratClustering</title>
<g id="a_node3"><a xlink:title="Cluster all T cells or selected T cells selected by `TCellSelection`.">
<path fill="none" stroke="black" d="M260,-180C260,-180 168.25,-180 168.25,-180 162.25,-180 156.25,-174 156.25,-168 156.25,-168 156.25,-156 156.25,-156 156.25,-150 162.25,-144 168.25,-144 168.25,-144 260,-144 260,-144 266,-144 272,-150 272,-156 272,-156 272,-168 272,-168 272,-174 266,-180 260,-180"/>
<text text-anchor="middle" x="214.12" y="-157.72" font-family="Helvetica,sans-Serif" font-size="12.00">SeuratClustering</text>
</a>
</g>
</g>
<!-- ClusterMarkers -->
<g id="node8" class="node">
<title>ClusterMarkers</title>
<g id="a_node8"><a xlink:title="Markers for clusters of all or selected T cells.">
<polygon fill="none" stroke="black" points="305.5,-108 198.75,-108 198.75,-72 305.5,-72 305.5,-108"/>
<text text-anchor="middle" x="252.12" y="-85.72" font-family="Helvetica,sans-Serif" font-size="12.00">ClusterMarkers</text>
</a>
</g>
</g>
<!-- SeuratClustering&#45;&gt;ClusterMarkers -->
<g id="edge12" class="edge">
<title>SeuratClustering&#45;&gt;ClusterMarkers</title>
<path fill="none" stroke="black" d="M223.52,-143.7C227.98,-135.47 233.41,-125.48 238.33,-116.42"/>
<polygon fill="black" stroke="black" points="240.76,-117.8 242.12,-109.43 235.84,-115.13 240.76,-117.8"/>
</g>
<!-- SeuratClustering&#45;&gt;IntegratingTCR -->
<g id="edge9" class="edge">
<title>SeuratClustering&#45;&gt;IntegratingTCR</title>
<path fill="none" stroke="black" d="M192.87,-143.7C181.91,-134.78 168.4,-123.78 156.56,-114.14"/>
<polygon fill="black" stroke="black" points="158.58,-112.18 150.61,-109.3 155.05,-116.52 158.58,-112.18"/>
</g>
<!-- SeuratPreparing -->
<g id="node4" class="node">
<title>SeuratPreparing</title>
<g id="a_node4"><a xlink:title="Load, prepare and apply QC to data, using `Seurat`">
<path fill="none" stroke="black" d="M258.5,-396C258.5,-396 169.75,-396 169.75,-396 163.75,-396 157.75,-390 157.75,-384 157.75,-384 157.75,-372 157.75,-372 157.75,-366 163.75,-360 169.75,-360 169.75,-360 258.5,-360 258.5,-360 264.5,-360 270.5,-366 270.5,-372 270.5,-372 270.5,-384 270.5,-384 270.5,-390 264.5,-396 258.5,-396"/>
<text text-anchor="middle" x="214.12" y="-373.73" font-family="Helvetica,sans-Serif" font-size="12.00">SeuratPreparing</text>
</a>
</g>
</g>
<!-- SeuratClusteringOfAllCells -->
<g id="node5" class="node">
<title>SeuratClusteringOfAllCells</title>
<g id="a_node5"><a xlink:title="Cluster all cells, including T cells and non&#45;T cells using Seurat">
<path fill="none" stroke="black" d="M310.12,-324C310.12,-324 162.12,-324 162.12,-324 156.12,-324 150.12,-318 150.12,-312 150.12,-312 150.12,-300 150.12,-300 150.12,-294 156.12,-288 162.12,-288 162.12,-288 310.12,-288 310.12,-288 316.12,-288 322.12,-294 322.12,-300 322.12,-300 322.12,-312 322.12,-312 322.12,-318 316.12,-324 310.12,-324"/>
<text text-anchor="middle" x="236.12" y="-301.73" font-family="Helvetica,sans-Serif" font-size="12.00">SeuratClusteringOfAllCells</text>
</a>
</g>
</g>
<!-- SeuratPreparing&#45;&gt;SeuratClusteringOfAllCells -->
<g id="edge6" class="edge">
<title>SeuratPreparing&#45;&gt;SeuratClusteringOfAllCells</title>
<path fill="none" stroke="black" d="M219.56,-359.7C222.09,-351.64 225.16,-341.89 227.96,-332.98"/>
<polygon fill="black" stroke="black" points="230.57,-334.02 230.3,-325.55 225.23,-332.34 230.57,-334.02"/>
</g>
<!-- SeuratClusteringOfAllCells&#45;&gt;TCellSelection -->
<g id="edge3" class="edge">
<title>SeuratClusteringOfAllCells&#45;&gt;TCellSelection</title>
<path fill="none" stroke="black" d="M230.69,-287.7C228.16,-279.64 225.09,-269.89 222.29,-260.98"/>
<polygon fill="black" stroke="black" points="225.02,-260.34 219.95,-253.55 219.68,-262.02 225.02,-260.34"/>
</g>
<!-- SampleInfo -->
<g id="node7" class="node">
<title>SampleInfo</title>
<g id="a_node7"><a xlink:title="List sample information and perform statistics">
<polygon fill="none" stroke="black" points="151.12,-468 75.34,-450 151.12,-432 226.91,-450 151.12,-468"/>
<text text-anchor="middle" x="151.12" y="-445.73" font-family="Helvetica,sans-Serif" font-size="12.00">SampleInfo</text>
</a>
</g>
</g>
<!-- SampleInfo&#45;&gt;ImmunarchLoading -->
<g id="edge10" class="edge">
<title>SampleInfo&#45;&gt;ImmunarchLoading</title>
<path fill="none" stroke="black" d="M142.03,-433.8C127.47,-409.48 98.77,-361.53 81.13,-332.07"/>
<polygon fill="black" stroke="black" points="83.76,-331.01 77.25,-325.59 78.96,-333.89 83.76,-331.01"/>
</g>
<!-- SampleInfo&#45;&gt;SeuratPreparing -->
<g id="edge5" class="edge">
<title>SampleInfo&#45;&gt;SeuratPreparing</title>
<path fill="none" stroke="black" d="M163.87,-434.83C172,-425.81 182.73,-413.88 192.19,-403.37"/>
<polygon fill="black" stroke="black" points="194.21,-405.31 197.48,-397.49 190.05,-401.57 194.21,-405.31"/>
</g>
<!-- TCellSelection&#45;&gt;SeuratClustering -->
<g id="edge4" class="edge">
<title>TCellSelection&#45;&gt;SeuratClustering</title>
<path fill="none" stroke="black" d="M214.12,-215.7C214.12,-207.81 214.12,-198.3 214.12,-189.55"/>
<polygon fill="black" stroke="black" points="216.93,-189.62 214.13,-181.62 211.33,-189.62 216.93,-189.62"/>
</g>
<!-- IntegratingTCR&#45;&gt;SeuratClusterStats -->
<g id="edge7" class="edge">
<title>IntegratingTCR&#45;&gt;SeuratClusterStats</title>
<path fill="none" stroke="black" d="M138.75,-71.7C143.86,-63.39 150.07,-53.28 155.68,-44.14"/>
<polygon fill="black" stroke="black" points="158.02,-45.68 159.83,-37.39 153.25,-42.75 158.02,-45.68"/>
</g>
<!-- IntegratingTCR&#45;&gt;Immunarch -->
<g id="edge11" class="edge">
<title>IntegratingTCR&#45;&gt;Immunarch</title>
<path fill="none" stroke="black" d="M108.1,-71.7C97.88,-62.86 85.3,-51.99 74.22,-42.41"/>
<polygon fill="black" stroke="black" points="76.23,-40.45 68.34,-37.34 72.57,-44.69 76.23,-40.45"/>
</g>
</g>
</svg>
