<?xml version="1.0" encoding="UTF-8" standalone="no"?>
<!DOCTYPE svg PUBLIC "-//W3C//DTD SVG 1.1//EN"
 "http://www.w3.org/Graphics/SVG/1.1/DTD/svg11.dtd">
<!-- Generated by graphviz version 7.0.5 (20221231.0122)
 -->
<!-- Title: Immunopipe Pages: 1 -->
<svg width="332pt" height="514pt"
 viewBox="0.00 0.00 332.00 514.00" xmlns="http://www.w3.org/2000/svg" xmlns:xlink="http://www.w3.org/1999/xlink">
<g id="graph0" class="graph" transform="scale(1 1) rotate(0) translate(4 510)">
<title>Immunopipe</title>
<polygon fill="white" stroke="none" points="-4,4 -4,-510 328,-510 328,4 -4,4"/>
<text text-anchor="middle" x="162" y="-490.8" font-family="Helvetica,sans-Serif" font-size="14.00">Immunopipe</text>
<text text-anchor="middle" x="162" y="-475.8" font-family="Helvetica,sans-Serif" font-size="14.00"> </text>
<!-- Immunarch -->
<g id="node1" class="node">
<title>Immunarch</title>
<g id="a_node1"><a xlink:title="Exploration of Single&#45;cell and Bulk T&#45;cell/Antibody Immune Repertoires">
<polygon fill="none" stroke="black" points="318.5,-36 232.5,-36 232.5,0 318.5,0 318.5,-36"/>
<text text-anchor="middle" x="275.5" y="-14.9" font-family="Helvetica,sans-Serif" font-size="12.00">Immunarch</text>
</a>
</g>
</g>
<!-- SeuratClustering -->
<g id="node2" class="node">
<title>SeuratClustering</title>
<g id="a_node2"><a xlink:title="Cluster all T cells or selected T cells selected by `TCellSelection`.">
<path fill="none" stroke="black" d="M134.5,-180C134.5,-180 42.5,-180 42.5,-180 36.5,-180 30.5,-174 30.5,-168 30.5,-168 30.5,-156 30.5,-156 30.5,-150 36.5,-144 42.5,-144 42.5,-144 134.5,-144 134.5,-144 140.5,-144 146.5,-150 146.5,-156 146.5,-156 146.5,-168 146.5,-168 146.5,-174 140.5,-180 134.5,-180"/>
<text text-anchor="middle" x="88.5" y="-158.9" font-family="Helvetica,sans-Serif" font-size="12.00">SeuratClustering</text>
</a>
</g>
</g>
<!-- ClusterMarkers -->
<g id="node6" class="node">
<title>ClusterMarkers</title>
<g id="a_node6"><a xlink:title="Markers for clusters of all or selected T cells.">
<polygon fill="none" stroke="black" points="123,-108 16,-108 16,-72 123,-72 123,-108"/>
<text text-anchor="middle" x="69.5" y="-86.9" font-family="Helvetica,sans-Serif" font-size="12.00">ClusterMarkers</text>
</a>
</g>
</g>
<!-- SeuratClustering&#45;&gt;ClusterMarkers -->
<g id="edge1" class="edge">
<title>SeuratClustering&#45;&gt;ClusterMarkers</title>
<path fill="none" stroke="black" d="M83.8,-143.7C81.64,-135.73 79.03,-126.1 76.63,-117.26"/>
<polygon fill="black" stroke="black" points="79.34,-116.55 74.54,-109.57 73.93,-118.02 79.34,-116.55"/>
</g>
<!-- IntegratingTCR -->
<g id="node10" class="node">
<title>IntegratingTCR</title>
<g id="a_node10"><a xlink:title="Attach TCR clone information as meta columns to Seurat object">
<path fill="none" stroke="black" d="M235.5,-108C235.5,-108 153.5,-108 153.5,-108 147.5,-108 141.5,-102 141.5,-96 141.5,-96 141.5,-84 141.5,-84 141.5,-78 147.5,-72 153.5,-72 153.5,-72 235.5,-72 235.5,-72 241.5,-72 247.5,-78 247.5,-84 247.5,-84 247.5,-96 247.5,-96 247.5,-102 241.5,-108 235.5,-108"/>
<text text-anchor="middle" x="194.5" y="-86.9" font-family="Helvetica,sans-Serif" font-size="12.00">IntegratingTCR</text>
</a>
</g>
</g>
<!-- SeuratClustering&#45;&gt;IntegratingTCR -->
<g id="edge2" class="edge">
<title>SeuratClustering&#45;&gt;IntegratingTCR</title>
<path fill="none" stroke="black" d="M114.97,-143.52C128.74,-134.43 145.72,-123.22 160.45,-113.49"/>
<polygon fill="black" stroke="black" points="161.97,-115.84 167.1,-109.09 158.88,-111.17 161.97,-115.84"/>
</g>
<!-- SeuratPreparing -->
<g id="node3" class="node">
<title>SeuratPreparing</title>
<g id="a_node3"><a xlink:title="Load, prepare and apply QC to data, using `Seurat`">
<path fill="none" stroke="black" d="M174,-396C174,-396 85,-396 85,-396 79,-396 73,-390 73,-384 73,-384 73,-372 73,-372 73,-366 79,-360 85,-360 85,-360 174,-360 174,-360 180,-360 186,-366 186,-372 186,-372 186,-384 186,-384 186,-390 180,-396 174,-396"/>
<text text-anchor="middle" x="129.5" y="-374.9" font-family="Helvetica,sans-Serif" font-size="12.00">SeuratPreparing</text>
</a>
</g>
</g>
<!-- SeuratClusteringOfAllCells -->
<g id="node5" class="node">
<title>SeuratClusteringOfAllCells</title>
<g id="a_node5"><a xlink:title="Cluster all cells, including T cells and non&#45;T cells using Seurat">
<path fill="none" stroke="black" d="M161,-324C161,-324 12,-324 12,-324 6,-324 0,-318 0,-312 0,-312 0,-300 0,-300 0,-294 6,-288 12,-288 12,-288 161,-288 161,-288 167,-288 173,-294 173,-300 173,-300 173,-312 173,-312 173,-318 167,-324 161,-324"/>
<text text-anchor="middle" x="86.5" y="-302.9" font-family="Helvetica,sans-Serif" font-size="12.00">SeuratClusteringOfAllCells</text>
</a>
</g>
</g>
<!-- SeuratPreparing&#45;&gt;SeuratClusteringOfAllCells -->
<g id="edge11" class="edge">
<title>SeuratPreparing&#45;&gt;SeuratClusteringOfAllCells</title>
<path fill="none" stroke="black" d="M118.87,-359.7C113.77,-351.39 107.56,-341.28 101.94,-332.14"/>
<polygon fill="black" stroke="black" points="104.37,-330.75 97.8,-325.39 99.6,-333.68 104.37,-330.75"/>
</g>
<!-- SeuratClusterStats -->
<g id="node4" class="node">
<title>SeuratClusterStats</title>
<polygon fill="none" stroke="black" points="214.5,-36 86.5,-36 86.5,0 214.5,0 214.5,-36"/>
<text text-anchor="middle" x="150.5" y="-14.9" font-family="Helvetica,sans-Serif" font-size="12.00">SeuratClusterStats</text>
</g>
<!-- TCellSelection -->
<g id="node7" class="node">
<title>TCellSelection</title>
<path fill="none" stroke="black" d="M126.5,-252C126.5,-252 50.5,-252 50.5,-252 44.5,-252 38.5,-246 38.5,-240 38.5,-240 38.5,-228 38.5,-228 38.5,-222 44.5,-216 50.5,-216 50.5,-216 126.5,-216 126.5,-216 132.5,-216 138.5,-222 138.5,-228 138.5,-228 138.5,-240 138.5,-240 138.5,-246 132.5,-252 126.5,-252"/>
<text text-anchor="middle" x="88.5" y="-230.9" font-family="Helvetica,sans-Serif" font-size="12.00">TCellSelection</text>
</g>
<!-- SeuratClusteringOfAllCells&#45;&gt;TCellSelection -->
<g id="edge8" class="edge">
<title>SeuratClusteringOfAllCells&#45;&gt;TCellSelection</title>
<path fill="none" stroke="black" d="M86.99,-287.7C87.22,-279.81 87.49,-270.3 87.74,-261.55"/>
<polygon fill="black" stroke="black" points="90.54,-261.69 87.97,-253.62 84.94,-261.53 90.54,-261.69"/>
</g>
<!-- TCellSelection&#45;&gt;SeuratClustering -->
<g id="edge12" class="edge">
<title>TCellSelection&#45;&gt;SeuratClustering</title>
<path fill="none" stroke="black" d="M88.5,-215.7C88.5,-207.81 88.5,-198.3 88.5,-189.55"/>
<polygon fill="black" stroke="black" points="91.3,-189.62 88.5,-181.62 85.7,-189.62 91.3,-189.62"/>
</g>
<!-- ImmunarchLoading -->
<g id="node8" class="node">
<title>ImmunarchLoading</title>
<g id="a_node8"><a xlink:title="Immuarch &#45; Loading data">
<path fill="none" stroke="black" d="M312,-324C312,-324 203,-324 203,-324 197,-324 191,-318 191,-312 191,-312 191,-300 191,-300 191,-294 197,-288 203,-288 203,-288 312,-288 312,-288 318,-288 324,-294 324,-300 324,-300 324,-312 324,-312 324,-318 318,-324 312,-324"/>
<text text-anchor="middle" x="257.5" y="-302.9" font-family="Helvetica,sans-Serif" font-size="12.00">ImmunarchLoading</text>
</a>
</g>
</g>
<!-- ImmunarchLoading&#45;&gt;Immunarch -->
<g id="edge10" class="edge">
<title>ImmunarchLoading&#45;&gt;Immunarch</title>
<path fill="none" stroke="black" d="M258.6,-287.54C261.64,-239.16 270.2,-103.15 273.84,-45.43"/>
<polygon fill="black" stroke="black" points="276.61,-45.9 274.32,-37.74 271.02,-45.55 276.61,-45.9"/>
</g>
<!-- ImmunarchLoading&#45;&gt;TCellSelection -->
<g id="edge7" class="edge">
<title>ImmunarchLoading&#45;&gt;TCellSelection</title>
<path fill="none" stroke="black" d="M215.29,-287.52C192.22,-277.96 163.47,-266.05 139.19,-256"/>
<polygon fill="black" stroke="black" points="140.33,-253.44 131.86,-252.96 138.18,-258.61 140.33,-253.44"/>
</g>
<!-- ImmunarchLoading&#45;&gt;IntegratingTCR -->
<g id="edge3" class="edge">
<title>ImmunarchLoading&#45;&gt;IntegratingTCR</title>
<path fill="none" stroke="black" d="M252.45,-287.85C241.46,-250.52 215.31,-161.69 202.23,-117.26"/>
<polygon fill="black" stroke="black" points="204.95,-116.57 200,-109.68 199.57,-118.15 204.95,-116.57"/>
</g>
<!-- SampleInfo -->
<g id="node9" class="node">
<title>SampleInfo</title>
<g id="a_node9"><a xlink:title="List sample information and perform statistics">
<polygon fill="none" stroke="black" points="171.5,-468 97.5,-450 171.5,-432 245.5,-450 171.5,-468"/>
<text text-anchor="middle" x="171.5" y="-446.9" font-family="Helvetica,sans-Serif" font-size="12.00">SampleInfo</text>
</a>
</g>
</g>
<!-- SampleInfo&#45;&gt;SeuratPreparing -->
<g id="edge6" class="edge">
<title>SampleInfo&#45;&gt;SeuratPreparing</title>
<path fill="none" stroke="black" d="M162.39,-433.81C157.18,-425.14 150.53,-414.05 144.57,-404.12"/>
<polygon fill="black" stroke="black" points="147.07,-402.84 140.55,-397.42 142.27,-405.73 147.07,-402.84"/>
</g>
<!-- SampleInfo&#45;&gt;ImmunarchLoading -->
<g id="edge9" class="edge">
<title>SampleInfo&#45;&gt;ImmunarchLoading</title>
<path fill="none" stroke="black" d="M180.7,-433.8C195.44,-409.48 224.47,-361.53 242.32,-332.07"/>
<polygon fill="black" stroke="black" points="244.5,-333.88 246.25,-325.58 239.71,-330.97 244.5,-333.88"/>
</g>
<!-- IntegratingTCR&#45;&gt;Immunarch -->
<g id="edge4" class="edge">
<title>IntegratingTCR&#45;&gt;Immunarch</title>
<path fill="none" stroke="black" d="M214.52,-71.7C224.74,-62.86 237.33,-51.99 248.41,-42.41"/>
<polygon fill="black" stroke="black" points="250.06,-44.69 254.28,-37.34 246.4,-40.45 250.06,-44.69"/>
</g>
<!-- IntegratingTCR&#45;&gt;SeuratClusterStats -->
<g id="edge5" class="edge">
<title>IntegratingTCR&#45;&gt;SeuratClusterStats</title>
<path fill="none" stroke="black" d="M183.62,-71.7C178.4,-63.39 172.05,-53.28 166.3,-44.14"/>
<polygon fill="black" stroke="black" points="168.68,-42.67 162.06,-37.39 163.94,-45.65 168.68,-42.67"/>
</g>
</g>
</svg>
