<?xml version="1.0" encoding="UTF-8" standalone="no"?>
<!DOCTYPE svg PUBLIC "-//W3C//DTD SVG 1.1//EN"
 "http://www.w3.org/Graphics/SVG/1.1/DTD/svg11.dtd">
<!-- Generated by graphviz version 3.0.0 (20220315.2325)
 -->
<!-- Title: Immunopipe Pages: 1 -->
<svg width="306pt" height="514pt"
 viewBox="0.00 0.00 306.00 514.00" xmlns="http://www.w3.org/2000/svg" xmlns:xlink="http://www.w3.org/1999/xlink">
<g id="graph0" class="graph" transform="scale(1 1) rotate(0) translate(4 510)">
<title>Immunopipe</title>
<polygon fill="white" stroke="transparent" points="-4,4 -4,-510 302,-510 302,4 -4,4"/>
<text text-anchor="middle" x="149" y="-490.8" font-family="Helvetica,sans-Serif" font-size="14.00">Immunopipe</text>
<text text-anchor="middle" x="149" y="-475.8" font-family="Helvetica,sans-Serif" font-size="14.00"> </text>
<!-- ClusterMarkers -->
<g id="node1" class="node">
<title>ClusterMarkers</title>
<g id="a_node1"><a xlink:title="Markers for clusters of all or selected T cells.">
<polygon fill="none" stroke="black" points="108.5,-108 10.5,-108 10.5,-72 108.5,-72 108.5,-108"/>
<text text-anchor="middle" x="59.5" y="-86.9" font-family="Helvetica,sans-Serif" font-size="12.00">ClusterMarkers</text>
</a>
</g>
</g>
<!-- Immunarch -->
<g id="node2" class="node">
<title>Immunarch</title>
<g id="a_node2"><a xlink:title="Exploration of Single&#45;cell and Bulk T&#45;cell/Antibody Immune Repertoires">
<polygon fill="none" stroke="black" points="290.5,-36 214.5,-36 214.5,0 290.5,0 290.5,-36"/>
<text text-anchor="middle" x="252.5" y="-14.9" font-family="Helvetica,sans-Serif" font-size="12.00">Immunarch</text>
</a>
</g>
</g>
<!-- SeuratPreparing -->
<g id="node3" class="node">
<title>SeuratPreparing</title>
<g id="a_node3"><a xlink:title="Load, prepare and apply QC to data, using `Seurat`">
<path fill="none" stroke="black" d="M159.5,-396C159.5,-396 79.5,-396 79.5,-396 73.5,-396 67.5,-390 67.5,-384 67.5,-384 67.5,-372 67.5,-372 67.5,-366 73.5,-360 79.5,-360 79.5,-360 159.5,-360 159.5,-360 165.5,-360 171.5,-366 171.5,-372 171.5,-372 171.5,-384 171.5,-384 171.5,-390 165.5,-396 159.5,-396"/>
<text text-anchor="middle" x="119.5" y="-374.9" font-family="Helvetica,sans-Serif" font-size="12.00">SeuratPreparing</text>
</a>
</g>
</g>
<!-- SeuratClusteringOfAllCells -->
<g id="node9" class="node">
<title>SeuratClusteringOfAllCells</title>
<g id="a_node9"><a xlink:title="Cluster all cells, including T cells and non&#45;T cells using Seurat">
<path fill="none" stroke="black" d="M149,-324C149,-324 12,-324 12,-324 6,-324 0,-318 0,-312 0,-312 0,-300 0,-300 0,-294 6,-288 12,-288 12,-288 149,-288 149,-288 155,-288 161,-294 161,-300 161,-300 161,-312 161,-312 161,-318 155,-324 149,-324"/>
<text text-anchor="middle" x="80.5" y="-302.9" font-family="Helvetica,sans-Serif" font-size="12.00">SeuratClusteringOfAllCells</text>
</a>
</g>
</g>
<!-- SeuratPreparing&#45;&gt;SeuratClusteringOfAllCells -->
<g id="edge4" class="edge">
<title>SeuratPreparing&#45;&gt;SeuratClusteringOfAllCells</title>
<path fill="none" stroke="black" d="M109.86,-359.7C105.09,-351.14 99.25,-340.66 94.04,-331.3"/>
<polygon fill="black" stroke="black" points="96.37,-329.73 90.03,-324.1 91.48,-332.46 96.37,-329.73"/>
</g>
<!-- IntegratingTCR -->
<g id="node4" class="node">
<title>IntegratingTCR</title>
<g id="a_node4"><a xlink:title="Attach TCR clone information as meta columns to Seurat object">
<path fill="none" stroke="black" d="M212.5,-108C212.5,-108 138.5,-108 138.5,-108 132.5,-108 126.5,-102 126.5,-96 126.5,-96 126.5,-84 126.5,-84 126.5,-78 132.5,-72 138.5,-72 138.5,-72 212.5,-72 212.5,-72 218.5,-72 224.5,-78 224.5,-84 224.5,-84 224.5,-96 224.5,-96 224.5,-102 218.5,-108 212.5,-108"/>
<text text-anchor="middle" x="175.5" y="-86.9" font-family="Helvetica,sans-Serif" font-size="12.00">IntegratingTCR</text>
</a>
</g>
</g>
<!-- IntegratingTCR&#45;&gt;Immunarch -->
<g id="edge11" class="edge">
<title>IntegratingTCR&#45;&gt;Immunarch</title>
<path fill="none" stroke="black" d="M194.53,-71.7C204.51,-62.63 216.86,-51.4 227.58,-41.65"/>
<polygon fill="black" stroke="black" points="229.65,-43.56 233.69,-36.1 225.88,-39.41 229.65,-43.56"/>
</g>
<!-- SeuratClusterStats -->
<g id="node8" class="node">
<title>SeuratClusterStats</title>
<polygon fill="none" stroke="black" points="196,-36 79,-36 79,0 196,0 196,-36"/>
<text text-anchor="middle" x="137.5" y="-14.9" font-family="Helvetica,sans-Serif" font-size="12.00">SeuratClusterStats</text>
</g>
<!-- IntegratingTCR&#45;&gt;SeuratClusterStats -->
<g id="edge5" class="edge">
<title>IntegratingTCR&#45;&gt;SeuratClusterStats</title>
<path fill="none" stroke="black" d="M166.11,-71.7C161.46,-63.14 155.77,-52.66 150.69,-43.3"/>
<polygon fill="black" stroke="black" points="153.06,-41.8 146.79,-36.1 148.14,-44.47 153.06,-41.8"/>
</g>
<!-- ImmunarchLoading -->
<g id="node5" class="node">
<title>ImmunarchLoading</title>
<g id="a_node5"><a xlink:title="Immuarch &#45; Loading data">
<path fill="none" stroke="black" d="M286,-324C286,-324 191,-324 191,-324 185,-324 179,-318 179,-312 179,-312 179,-300 179,-300 179,-294 185,-288 191,-288 191,-288 286,-288 286,-288 292,-288 298,-294 298,-300 298,-300 298,-312 298,-312 298,-318 292,-324 286,-324"/>
<text text-anchor="middle" x="238.5" y="-302.9" font-family="Helvetica,sans-Serif" font-size="12.00">ImmunarchLoading</text>
</a>
</g>
</g>
<!-- ImmunarchLoading&#45;&gt;Immunarch -->
<g id="edge8" class="edge">
<title>ImmunarchLoading&#45;&gt;Immunarch</title>
<path fill="none" stroke="black" d="M239.33,-287.97C241.7,-239.7 248.45,-101.8 251.25,-44.47"/>
<polygon fill="black" stroke="black" points="254.06,-44.43 251.65,-36.31 248.46,-44.16 254.06,-44.43"/>
</g>
<!-- ImmunarchLoading&#45;&gt;IntegratingTCR -->
<g id="edge3" class="edge">
<title>ImmunarchLoading&#45;&gt;IntegratingTCR</title>
<path fill="none" stroke="black" d="M233.45,-287.85C222.37,-250.21 195.87,-160.2 182.9,-116.15"/>
<polygon fill="black" stroke="black" points="185.52,-115.12 180.57,-108.23 180.15,-116.7 185.52,-115.12"/>
</g>
<!-- TCellSelection -->
<g id="node10" class="node">
<title>TCellSelection</title>
<path fill="none" stroke="black" d="M135.5,-252C135.5,-252 63.5,-252 63.5,-252 57.5,-252 51.5,-246 51.5,-240 51.5,-240 51.5,-228 51.5,-228 51.5,-222 57.5,-216 63.5,-216 63.5,-216 135.5,-216 135.5,-216 141.5,-216 147.5,-222 147.5,-228 147.5,-228 147.5,-240 147.5,-240 147.5,-246 141.5,-252 135.5,-252"/>
<text text-anchor="middle" x="99.5" y="-230.9" font-family="Helvetica,sans-Serif" font-size="12.00">TCellSelection</text>
</g>
<!-- ImmunarchLoading&#45;&gt;TCellSelection -->
<g id="edge9" class="edge">
<title>ImmunarchLoading&#45;&gt;TCellSelection</title>
<path fill="none" stroke="black" d="M204.5,-287.88C185.31,-278.22 161.2,-266.07 140.92,-255.86"/>
<polygon fill="black" stroke="black" points="142.04,-253.29 133.63,-252.19 139.52,-258.29 142.04,-253.29"/>
</g>
<!-- SampleInfo -->
<g id="node6" class="node">
<title>SampleInfo</title>
<g id="a_node6"><a xlink:title="List sample information and perform statistics">
<polygon fill="none" stroke="black" points="159.5,-468 92.43,-450 159.5,-432 226.57,-450 159.5,-468"/>
<text text-anchor="middle" x="159.5" y="-446.9" font-family="Helvetica,sans-Serif" font-size="12.00">SampleInfo</text>
</a>
</g>
</g>
<!-- SampleInfo&#45;&gt;SeuratPreparing -->
<g id="edge2" class="edge">
<title>SampleInfo&#45;&gt;SeuratPreparing</title>
<path fill="none" stroke="black" d="M151.02,-434.15C145.89,-425.18 139.22,-413.52 133.35,-403.23"/>
<polygon fill="black" stroke="black" points="135.64,-401.6 129.24,-396.04 130.78,-404.38 135.64,-401.6"/>
</g>
<!-- SampleInfo&#45;&gt;ImmunarchLoading -->
<g id="edge12" class="edge">
<title>SampleInfo&#45;&gt;ImmunarchLoading</title>
<path fill="none" stroke="black" d="M167.81,-434.07C181.39,-409.65 208.49,-360.94 224.91,-331.43"/>
<polygon fill="black" stroke="black" points="227.4,-332.72 228.84,-324.37 222.5,-330 227.4,-332.72"/>
</g>
<!-- SeuratClustering -->
<g id="node7" class="node">
<title>SeuratClustering</title>
<g id="a_node7"><a xlink:title="Cluster all T cells or selected T cells selected by `TCellSelection`.">
<path fill="none" stroke="black" d="M141,-180C141,-180 58,-180 58,-180 52,-180 46,-174 46,-168 46,-168 46,-156 46,-156 46,-150 52,-144 58,-144 58,-144 141,-144 141,-144 147,-144 153,-150 153,-156 153,-156 153,-168 153,-168 153,-174 147,-180 141,-180"/>
<text text-anchor="middle" x="99.5" y="-158.9" font-family="Helvetica,sans-Serif" font-size="12.00">SeuratClustering</text>
</a>
</g>
</g>
<!-- SeuratClustering&#45;&gt;ClusterMarkers -->
<g id="edge6" class="edge">
<title>SeuratClustering&#45;&gt;ClusterMarkers</title>
<path fill="none" stroke="black" d="M89.61,-143.7C84.72,-135.14 78.73,-124.66 73.39,-115.3"/>
<polygon fill="black" stroke="black" points="75.67,-113.66 69.27,-108.1 70.81,-116.44 75.67,-113.66"/>
</g>
<!-- SeuratClustering&#45;&gt;IntegratingTCR -->
<g id="edge1" class="edge">
<title>SeuratClustering&#45;&gt;IntegratingTCR</title>
<path fill="none" stroke="black" d="M118.29,-143.7C128.13,-134.63 140.32,-123.4 150.91,-113.65"/>
<polygon fill="black" stroke="black" points="152.94,-115.58 156.93,-108.1 149.15,-111.46 152.94,-115.58"/>
</g>
<!-- SeuratClusteringOfAllCells&#45;&gt;TCellSelection -->
<g id="edge7" class="edge">
<title>SeuratClusteringOfAllCells&#45;&gt;TCellSelection</title>
<path fill="none" stroke="black" d="M85.2,-287.7C87.47,-279.3 90.25,-269.07 92.75,-259.86"/>
<polygon fill="black" stroke="black" points="95.46,-260.56 94.86,-252.1 90.06,-259.09 95.46,-260.56"/>
</g>
<!-- TCellSelection&#45;&gt;SeuratClustering -->
<g id="edge10" class="edge">
<title>TCellSelection&#45;&gt;SeuratClustering</title>
<path fill="none" stroke="black" d="M99.5,-215.7C99.5,-207.39 99.5,-197.28 99.5,-188.14"/>
<polygon fill="black" stroke="black" points="102.3,-188.1 99.5,-180.1 96.7,-188.1 102.3,-188.1"/>
</g>
</g>
</svg>
